<mxfile host="65bd71144e">
    <diagram id="iv4MwHQzrEUHPFxbIGbp" name="Page-1">
        <mxGraphModel dx="649" dy="577" grid="1" gridSize="10" guides="1" tooltips="1" connect="1" arrows="1" fold="1" page="1" pageScale="1" pageWidth="827" pageHeight="1169" math="0" shadow="0">
            <root>
                <mxCell id="0"/>
                <mxCell id="1" parent="0"/>
                <mxCell id="5" value="" style="edgeStyle=none;html=1;fontSize=14;" edge="1" parent="1" source="3" target="4">
                    <mxGeometry relative="1" as="geometry"/>
                </mxCell>
                <mxCell id="3" value="&lt;h2 style=&quot;font-size: 14px;&quot;&gt;Start&lt;/h2&gt;" style="ellipse;whiteSpace=wrap;html=1;spacing=10;fontSize=14;" vertex="1" parent="1">
                    <mxGeometry x="354" y="30" width="120" height="50" as="geometry"/>
                </mxCell>
                <mxCell id="7" value="" style="edgeStyle=none;html=1;fontSize=14;" edge="1" parent="1" source="4" target="6">
                    <mxGeometry relative="1" as="geometry"/>
                </mxCell>
                <mxCell id="4" value="array = {array[1], array[2],.....array[n]}" style="shape=parallelogram;perimeter=parallelogramPerimeter;whiteSpace=wrap;html=1;fixedSize=1;spacing=10;fontSize=14;" vertex="1" parent="1">
                    <mxGeometry x="309" y="120" width="210" height="70" as="geometry"/>
                </mxCell>
                <mxCell id="9" value="" style="edgeStyle=none;html=1;fontSize=14;" edge="1" parent="1" source="6" target="8">
                    <mxGeometry relative="1" as="geometry"/>
                </mxCell>
                <mxCell id="6" value="i = 0&lt;br style=&quot;font-size: 14px;&quot;&gt;total = {total[1], total[2],......total[n]}" style="whiteSpace=wrap;html=1;spacing=10;fontSize=14;" vertex="1" parent="1">
                    <mxGeometry x="310" y="230" width="210" height="60" as="geometry"/>
                </mxCell>
                <mxCell id="20" value="Yes" style="edgeStyle=none;html=1;entryX=0.5;entryY=0;entryDx=0;entryDy=0;fontSize=14;" edge="1" parent="1" target="12">
                    <mxGeometry x="-0.1706" relative="1" as="geometry">
                        <mxPoint x="413" y="395.3400000000001" as="sourcePoint"/>
                        <mxPoint as="offset"/>
                    </mxGeometry>
                </mxCell>
                <mxCell id="26" value="" style="edgeStyle=none;html=1;fontSize=14;" edge="1" parent="1" source="8" target="25">
                    <mxGeometry relative="1" as="geometry">
                        <Array as="points">
                            <mxPoint x="580" y="365"/>
                        </Array>
                    </mxGeometry>
                </mxCell>
                <mxCell id="42" value="No" style="edgeLabel;html=1;align=center;verticalAlign=middle;resizable=0;points=[];fontSize=14;" vertex="1" connectable="0" parent="26">
                    <mxGeometry x="-0.2856" y="1" relative="1" as="geometry">
                        <mxPoint as="offset"/>
                    </mxGeometry>
                </mxCell>
                <mxCell id="8" value="i = n" style="rhombus;whiteSpace=wrap;html=1;spacing=10;fontSize=14;" vertex="1" parent="1">
                    <mxGeometry x="373" y="340" width="80" height="50" as="geometry"/>
                </mxCell>
                <mxCell id="18" style="edgeStyle=none;html=1;fontSize=14;entryX=0;entryY=0.5;entryDx=0;entryDy=0;" edge="1" parent="1" source="12" target="8">
                    <mxGeometry relative="1" as="geometry">
                        <mxPoint x="300" y="365" as="targetPoint"/>
                        <Array as="points">
                            <mxPoint x="300" y="456"/>
                            <mxPoint x="300" y="420"/>
                            <mxPoint x="300" y="390"/>
                            <mxPoint x="300" y="365"/>
                        </Array>
                    </mxGeometry>
                </mxCell>
                <mxCell id="19" value="No" style="edgeLabel;html=1;align=center;verticalAlign=middle;resizable=0;points=[];fontSize=14;" vertex="1" connectable="0" parent="18">
                    <mxGeometry x="-0.1951" y="-1" relative="1" as="geometry">
                        <mxPoint y="-3" as="offset"/>
                    </mxGeometry>
                </mxCell>
                <mxCell id="21" value="Yes" style="edgeStyle=none;html=1;entryX=1;entryY=0.5;entryDx=0;entryDy=0;fontSize=14;" edge="1" parent="1" source="12" target="14">
                    <mxGeometry relative="1" as="geometry">
                        <Array as="points">
                            <mxPoint x="413" y="501.03"/>
                        </Array>
                    </mxGeometry>
                </mxCell>
                <mxCell id="12" value="array[i].lenght &amp;lt; 4" style="rhombus;whiteSpace=wrap;html=1;spacing=10;fontSize=14;" vertex="1" parent="1">
                    <mxGeometry x="338" y="430.69" width="150" height="50" as="geometry"/>
                </mxCell>
                <mxCell id="17" style="edgeStyle=none;html=1;entryX=0;entryY=0.5;entryDx=0;entryDy=0;fontSize=14;" edge="1" parent="1" source="14" target="8">
                    <mxGeometry relative="1" as="geometry">
                        <Array as="points">
                            <mxPoint x="210" y="485"/>
                            <mxPoint x="210" y="365"/>
                            <mxPoint x="260" y="365"/>
                        </Array>
                    </mxGeometry>
                </mxCell>
                <mxCell id="14" value="total[i] = array[i]" style="whiteSpace=wrap;html=1;spacing=10;fontSize=14;" vertex="1" parent="1">
                    <mxGeometry x="220" y="486.03" width="120" height="30" as="geometry"/>
                </mxCell>
                <mxCell id="37" style="edgeStyle=none;html=1;entryX=0.5;entryY=0;entryDx=0;entryDy=0;fontSize=14;" edge="1" parent="1" source="25" target="27">
                    <mxGeometry relative="1" as="geometry">
                        <Array as="points">
                            <mxPoint x="580" y="530"/>
                            <mxPoint x="415" y="530"/>
                        </Array>
                    </mxGeometry>
                </mxCell>
                <mxCell id="25" value="i = 0" style="whiteSpace=wrap;html=1;spacing=10;fontSize=14;" vertex="1" parent="1">
                    <mxGeometry x="519" y="440.69" width="120" height="30" as="geometry"/>
                </mxCell>
                <mxCell id="38" value="Yes" style="edgeStyle=none;html=1;entryX=0.5;entryY=0;entryDx=0;entryDy=0;fontSize=14;" edge="1" parent="1" source="27" target="29">
                    <mxGeometry relative="1" as="geometry">
                        <Array as="points">
                            <mxPoint x="415" y="620"/>
                            <mxPoint x="334" y="620"/>
                        </Array>
                    </mxGeometry>
                </mxCell>
                <mxCell id="41" style="edgeStyle=none;html=1;entryX=0.5;entryY=0;entryDx=0;entryDy=0;fontSize=14;" edge="1" parent="1" source="27" target="36">
                    <mxGeometry relative="1" as="geometry">
                        <Array as="points">
                            <mxPoint x="240" y="585"/>
                            <mxPoint x="240" y="710"/>
                            <mxPoint x="413" y="710"/>
                        </Array>
                    </mxGeometry>
                </mxCell>
                <mxCell id="43" value="No" style="edgeLabel;html=1;align=center;verticalAlign=middle;resizable=0;points=[];fontSize=14;" vertex="1" connectable="0" parent="41">
                    <mxGeometry x="-0.2689" y="-1" relative="1" as="geometry">
                        <mxPoint as="offset"/>
                    </mxGeometry>
                </mxCell>
                <mxCell id="27" value="i = 0" style="rhombus;whiteSpace=wrap;html=1;spacing=10;fontSize=14;" vertex="1" parent="1">
                    <mxGeometry x="375" y="560" width="80" height="50" as="geometry"/>
                </mxCell>
                <mxCell id="33" value="Yes" style="edgeStyle=none;html=1;fontSize=14;" edge="1" parent="1" source="29" target="32">
                    <mxGeometry relative="1" as="geometry">
                        <Array as="points">
                            <mxPoint x="334" y="690"/>
                            <mxPoint x="560" y="690"/>
                        </Array>
                    </mxGeometry>
                </mxCell>
                <mxCell id="39" value="No" style="edgeStyle=none;html=1;entryX=1;entryY=0.5;entryDx=0;entryDy=0;fontSize=14;" edge="1" parent="1" source="29" target="27">
                    <mxGeometry x="-0.4286" relative="1" as="geometry">
                        <Array as="points">
                            <mxPoint x="480" y="660"/>
                            <mxPoint x="480" y="585"/>
                        </Array>
                        <mxPoint as="offset"/>
                    </mxGeometry>
                </mxCell>
                <mxCell id="29" value="total[i] != 0" style="rhombus;whiteSpace=wrap;html=1;spacing=10;fontSize=14;" vertex="1" parent="1">
                    <mxGeometry x="270" y="640" width="128" height="40" as="geometry"/>
                </mxCell>
                <mxCell id="40" style="edgeStyle=none;html=1;entryX=1;entryY=0.5;entryDx=0;entryDy=0;fontSize=14;" edge="1" parent="1" source="32" target="27">
                    <mxGeometry relative="1" as="geometry">
                        <Array as="points">
                            <mxPoint x="560" y="585"/>
                        </Array>
                    </mxGeometry>
                </mxCell>
                <mxCell id="32" value="Print(total[i])" style="whiteSpace=wrap;html=1;spacing=10;fontSize=14;" vertex="1" parent="1">
                    <mxGeometry x="500" y="635" width="120" height="30" as="geometry"/>
                </mxCell>
                <mxCell id="36" value="End" style="ellipse;whiteSpace=wrap;html=1;fontSize=14;" vertex="1" parent="1">
                    <mxGeometry x="353" y="750" width="120" height="45" as="geometry"/>
                </mxCell>
            </root>
        </mxGraphModel>
    </diagram>
</mxfile>